<svg xmlns="http://www.w3.org/2000/svg" id="Layer_2" width="603.873" height="413.272" viewBox="0 0 603.873 413.272"><defs><style>.cls-1{fill:#ff5315}</style></defs><g id="Layer_1-2" data-name="Layer_1"><path d="M430.846 187.833c-38.15-19.12-83.357-24.351-127.077-29.41-103.688-11.989-113.168-30.716-113.168-63.052h-95.37c.013 63.084 25.252 103.771 77.635 130.031 38.15 19.12 83.357 24.351 127.075 29.41 103.69 11.989 113.191 30.755 113.191 63.09h95.37c0-63.102-25.262-103.803-77.657-130.069ZM381.342 0 190.601 0 190.601 95.37 476.713 95.37 381.342 0z" class="cls-1"/><path d="m95.434 96.268-.203-96.268H0v413.272h95.231l.203-316.965v-.039h0ZM508.439 0H603.873V413.272H508.439zM127.021 317.902 222.391 413.272 413.132 413.272 413.132 317.902 127.021 317.902z" class="cls-1"/></g></svg>